<?xml version="1.0" encoding="utf-8"?>
<!-- Generator: Adobe Illustrator 26.0.1, SVG Export Plug-In . SVG Version: 6.00 Build 0)  -->
<svg version="1.1" id="Calque_1" xmlns="http://www.w3.org/2000/svg" xmlns:xlink="http://www.w3.org/1999/xlink" x="0px" y="0px"
	 viewBox="0 0 500 500" style="enable-background:new 0 0 500 500;" xml:space="preserve">
<style type="text/css">
	.st0{fill:none;stroke:#FFFFFF;stroke-width:2;stroke-miterlimit:10;}
	.st1{fill:#FFFFFF;}
	.st2{fill:none;stroke:#FFFFFF;stroke-miterlimit:10;}
</style>
<g id="logo">
	<g>
		<path class="st0" d="M98.56,21.57v306.62h0.47c6.02,75.73,75.31,135.48,159.97,135.48s153.95-59.75,159.97-135.48h0.47V21.57
			H98.56z"/>
		<path class="st1" d="M259,467.24c-84.31,0-155.31-59.25-163.22-135.48h-0.31L95,328.19V18h328.01v313.75h-0.79
			C414.32,407.99,343.31,467.24,259,467.24z M102.13,325.84l0.46,2.07c5.89,74.13,74.59,132.2,156.41,132.2
			s150.53-58.07,156.41-132.2l0.46-3.28V25.13H102.13V325.84z"/>
	</g>
	<g>
		<path class="st2" d="M419.45,235.49c0,0-71.83,0-160.44,0s-160.44,0-160.44,0s71.83,0,160.44,0S419.45,235.49,419.45,235.49z"/>
		<rect x="98.56" y="231.92" class="st2" width="320.88" height="7.13"/>
	</g>
	<g>
		<path class="st1" d="M419.45,299.66c0,0-71.83,0-160.44,0s-160.44,0-160.44,0s71.83,0,160.44,0S419.45,299.66,419.45,299.66z"/>
		<rect x="98.56" y="296.1" class="st1" width="320.88" height="7.13"/>
	</g>
	
		<rect x="134.22" y="264.01" transform="matrix(-1.836970e-16 1 -1 -1.836970e-16 430.3157 104.8372)" class="st1" width="57.05" height="7.13"/>
	
		<rect x="198.39" y="264.01" transform="matrix(-1.836970e-16 1 -1 -1.836970e-16 494.4925 40.6604)" class="st1" width="57.05" height="7.13"/>
	
		<rect x="262.57" y="264.01" transform="matrix(-1.836970e-16 1 -1 -1.836970e-16 558.6693 -23.5164)" class="st1" width="57.05" height="7.13"/>
	
		<rect x="326.75" y="264.01" transform="matrix(-1.836970e-16 1 -1 -1.836970e-16 622.8461 -87.6932)" class="st1" width="57.05" height="7.13"/>
	<rect x="255.44" y="303.23" class="st1" width="7.13" height="156.88"/>
	<path class="st1" d="M294.66,239.05h-71.31v-3.57c0-19.66,16-35.65,35.65-35.65s35.65,16,35.65,35.65V239.05z M230.7,231.92h56.6
		c-1.76-14.05-13.78-24.96-28.3-24.96C244.49,206.97,232.46,217.87,230.7,231.92z"/>
	<path class="st1" d="M326.75,239.05H191.26v-3.57c0-37.35,30.39-67.74,67.74-67.74s67.74,30.39,67.74,67.74V239.05z M198.5,231.92
		h121.01c-1.85-31.77-28.28-57.05-60.51-57.05S200.35,200.15,198.5,231.92z"/>
	<path class="st1" d="M358.83,239.05H159.17v-3.57c0-55.05,44.78-99.83,99.83-99.83s99.83,44.78,99.83,99.83V239.05z M166.37,231.92
		h185.27c-1.88-49.47-42.71-89.13-92.63-89.13S168.25,182.46,166.37,231.92z"/>
	<path class="st1" d="M394.49,239.05H123.52v-3.57C123.52,160.78,184.3,100,259,100s135.48,60.78,135.48,135.48V239.05z
		 M130.7,231.92h256.61c-1.89-69.13-58.72-124.79-128.3-124.79S132.59,162.79,130.7,231.92z"/>
	<path class="st1" d="M423.01,239.05H95v-3.57C95,143.09,168.57,67.92,259,67.92s164.01,75.17,164.01,167.57V239.05z M102.17,231.92
		h313.68C413.98,145.1,344.34,75.05,259,75.05S104.03,145.1,102.17,231.92z"/>
	
		<rect x="107.81" y="340.76" transform="matrix(0.8519 -0.5237 0.5237 0.8519 -152.2448 150.2318)" class="st1" width="163.43" height="7.13"/>
	
		<rect x="136.33" y="369.28" transform="matrix(0.4999 -0.8661 0.8661 0.4999 -213.8687 375.2993)" class="st1" width="163.43" height="7.13"/>
	
		<rect x="326.75" y="264.57" transform="matrix(0.5236 -0.852 0.852 0.5236 -137.661 446.3937)" class="st1" width="7.13" height="163.43"/>
	
		<rect x="298.22" y="293.09" transform="matrix(0.866 -0.5 0.5 0.866 -146.9695 201.1033)" class="st1" width="7.13" height="163.43"/>
</g>
</svg>
