<?xml version="1.0" encoding="utf-8"?>
<!-- Generator: Adobe Illustrator 26.0.1, SVG Export Plug-In . SVG Version: 6.00 Build 0)  -->
<svg version="1.1" id="Calque_1" xmlns="http://www.w3.org/2000/svg" xmlns:xlink="http://www.w3.org/1999/xlink" x="0px" y="0px"
	 viewBox="0 0 500 500" style="enable-background:new 0 0 500 500;" xml:space="preserve">
<style type="text/css">
	.st0{fill:#FFFFFF;}
</style>
<g id="logo">
	<g>
		<path class="st0" d="M154.13,154.93v183.22h0.28c3.6,45.25,45,80.96,95.59,80.96s91.99-35.7,95.59-80.96h0.28V154.93H154.13z"/>
		<path class="st0" d="M250,421.24c-50.38,0-92.81-35.4-97.53-80.96h-0.19l-0.28-2.13V152.79H348v187.48h-0.47
			C342.81,385.83,300.38,421.24,250,421.24z M156.26,336.74l0.28,1.24c3.52,44.3,44.57,79,93.47,79s89.95-34.7,93.47-79l0.28-1.96
			V157.06H156.26V336.74z"/>
	</g>
	<g>
		<path class="st0" d="M345.87,282.76c0,0-42.92,0-95.87,0s-95.87,0-95.87,0s42.92,0,95.87,0S345.87,282.76,345.87,282.76z"/>
		<rect x="154.13" y="280.62" class="st0" width="191.74" height="4.26"/>
	</g>
	<g>
		<path class="st0" d="M345.87,321.1c0,0-42.92,0-95.87,0s-95.87,0-95.87,0s42.92,0,95.87,0S345.87,321.1,345.87,321.1z"/>
		<rect x="154.13" y="318.97" class="st0" width="191.74" height="4.26"/>
	</g>
	
		<rect x="175.43" y="299.8" transform="matrix(-1.836970e-16 1 -1 -1.836970e-16 494.4062 109.4531)" class="st0" width="34.09" height="4.26"/>
	
		<rect x="213.78" y="299.8" transform="matrix(-1.836970e-16 1 -1 -1.836970e-16 532.7552 71.1041)" class="st0" width="34.09" height="4.26"/>
	
		<rect x="252.13" y="299.8" transform="matrix(-1.836970e-16 1 -1 -1.836970e-16 571.1041 32.7552)" class="st0" width="34.09" height="4.26"/>
	
		<rect x="290.48" y="299.8" transform="matrix(-1.836970e-16 1 -1 -1.836970e-16 609.4531 -5.5938)" class="st0" width="34.09" height="4.26"/>
	<rect x="247.87" y="323.23" class="st0" width="4.26" height="93.74"/>
	<path class="st0" d="M271.3,284.89H228.7v-2.13c0-11.75,9.56-21.3,21.3-21.3c11.75,0,21.3,9.56,21.3,21.3V284.89z M233.09,280.62
		h33.82c-1.05-8.4-8.23-14.91-16.91-14.91C241.32,265.71,234.14,272.23,233.09,280.62z"/>
	<path class="st0" d="M290.48,284.89h-80.96v-2.13c0-22.32,18.16-40.48,40.48-40.48s40.48,18.16,40.48,40.48V284.89z M213.84,280.62
		h72.31c-1.11-18.98-16.9-34.09-36.16-34.09S214.95,261.64,213.84,280.62z"/>
	<path class="st0" d="M309.65,284.89H190.35v-2.13c0-32.89,26.76-59.65,59.65-59.65s59.65,26.76,59.65,59.65V284.89z M194.65,280.62
		h110.71c-1.13-29.56-25.52-53.26-55.35-53.26S195.77,251.07,194.65,280.62z"/>
	<path class="st0" d="M330.96,284.89H169.04v-2.13c0-44.64,36.32-80.96,80.96-80.96s80.96,36.32,80.96,80.96V284.89z M173.33,280.62
		h153.34c-1.13-41.31-35.09-74.57-76.67-74.57S174.46,239.32,173.33,280.62z"/>
	<path class="st0" d="M348,284.89H152v-2.13c0-55.21,43.96-100.13,98-100.13s98,44.92,98,100.13V284.89z M156.28,280.62h187.44
		c-1.11-51.88-42.73-93.74-93.72-93.74S157.39,228.74,156.28,280.62z"/>
	
		<rect x="159.65" y="345.66" transform="matrix(0.8519 -0.5237 0.5237 0.8519 -151.2532 160.6725)" class="st0" width="97.66" height="4.26"/>
	
		<rect x="176.7" y="362.7" transform="matrix(0.4999 -0.8661 0.8661 0.4999 -203.1902 377.7689)" class="st0" width="97.66" height="4.26"/>
	<path class="st0" d="M192.48,111.25c-6.46,0-11.72-5.26-11.72-11.72s5.26-11.72,11.72-11.72c6.46,0,11.72,5.26,11.72,11.72
		S198.94,111.25,192.48,111.25z M192.48,92.08c-4.11,0-7.46,3.35-7.46,7.46s3.35,7.46,7.46,7.46c4.11,0,7.46-3.35,7.46-7.46
		S196.59,92.08,192.48,92.08z"/>
	<path class="st0" d="M230.83,111.25c-6.46,0-11.72-5.26-11.72-11.72s5.26-11.72,11.72-11.72s11.72,5.26,11.72,11.72
		S237.29,111.25,230.83,111.25z M230.83,92.08c-4.11,0-7.46,3.35-7.46,7.46s3.35,7.46,7.46,7.46c4.11,0,7.46-3.35,7.46-7.46
		S234.94,92.08,230.83,92.08z"/>
	<path class="st0" d="M269.17,111.25c-6.46,0-11.72-5.26-11.72-11.72s5.26-11.72,11.72-11.72c6.46,0,11.72,5.26,11.72,11.72
		S275.64,111.25,269.17,111.25z M269.17,92.08c-4.11,0-7.46,3.35-7.46,7.46s3.35,7.46,7.46,7.46c4.11,0,7.46-3.35,7.46-7.46
		S273.29,92.08,269.17,92.08z"/>
	<path class="st0" d="M307.52,111.25c-6.46,0-11.72-5.26-11.72-11.72s5.26-11.72,11.72-11.72c6.46,0,11.72,5.26,11.72,11.72
		S313.99,111.25,307.52,111.25z M307.52,92.08c-4.11,0-7.46,3.35-7.46,7.46s3.35,7.46,7.46,7.46c4.11,0,7.46-3.35,7.46-7.46
		S311.63,92.08,307.52,92.08z"/>
	<path class="st0" d="M192.48,141.08c-6.46,0-11.72-5.26-11.72-11.72s5.26-11.72,11.72-11.72c6.46,0,11.72,5.26,11.72,11.72
		S198.94,141.08,192.48,141.08z M192.48,121.9c-4.11,0-7.46,3.35-7.46,7.46c0,4.11,3.35,7.46,7.46,7.46c4.11,0,7.46-3.35,7.46-7.46
		C199.93,125.25,196.59,121.9,192.48,121.9z"/>
	<path class="st0" d="M230.83,141.08c-6.46,0-11.72-5.26-11.72-11.72s5.26-11.72,11.72-11.72s11.72,5.26,11.72,11.72
		S237.29,141.08,230.83,141.08z M230.83,121.9c-4.11,0-7.46,3.35-7.46,7.46c0,4.11,3.35,7.46,7.46,7.46c4.11,0,7.46-3.35,7.46-7.46
		C238.28,125.25,234.94,121.9,230.83,121.9z"/>
	<path class="st0" d="M269.17,141.08c-6.46,0-11.72-5.26-11.72-11.72s5.26-11.72,11.72-11.72c6.46,0,11.72,5.26,11.72,11.72
		S275.64,141.08,269.17,141.08z M269.17,121.9c-4.11,0-7.46,3.35-7.46,7.46c0,4.11,3.35,7.46,7.46,7.46c4.11,0,7.46-3.35,7.46-7.46
		C276.63,125.25,273.29,121.9,269.17,121.9z"/>
	<path class="st0" d="M307.52,141.08c-6.46,0-11.72-5.26-11.72-11.72s5.26-11.72,11.72-11.72c6.46,0,11.72,5.26,11.72,11.72
		S313.99,141.08,307.52,141.08z M307.52,121.9c-4.11,0-7.46,3.35-7.46,7.46c0,4.11,3.35,7.46,7.46,7.46c4.11,0,7.46-3.35,7.46-7.46
		C314.98,125.25,311.63,121.9,307.52,121.9z"/>
	<path class="st0" d="M192.48,81.42c-6.46,0-11.72-5.26-11.72-11.72s5.26-11.72,11.72-11.72c6.46,0,11.72,5.26,11.72,11.72
		S198.94,81.42,192.48,81.42z M192.48,62.25c-4.11,0-7.46,3.35-7.46,7.46s3.35,7.46,7.46,7.46c4.11,0,7.46-3.35,7.46-7.46
		S196.59,62.25,192.48,62.25z"/>
	<path class="st0" d="M230.83,81.42c-6.46,0-11.72-5.26-11.72-11.72s5.26-11.72,11.72-11.72s11.72,5.26,11.72,11.72
		S237.29,81.42,230.83,81.42z M230.83,62.25c-4.11,0-7.46,3.35-7.46,7.46s3.35,7.46,7.46,7.46c4.11,0,7.46-3.35,7.46-7.46
		S234.94,62.25,230.83,62.25z"/>
	<path class="st0" d="M269.17,81.42c-6.46,0-11.72-5.26-11.72-11.72s5.26-11.72,11.72-11.72c6.46,0,11.72,5.26,11.72,11.72
		S275.64,81.42,269.17,81.42z M269.17,62.25c-4.11,0-7.46,3.35-7.46,7.46s3.35,7.46,7.46,7.46c4.11,0,7.46-3.35,7.46-7.46
		S273.29,62.25,269.17,62.25z"/>
	<path class="st0" d="M307.52,81.42c-6.46,0-11.72-5.26-11.72-11.72s5.26-11.72,11.72-11.72c6.46,0,11.72,5.26,11.72,11.72
		S313.99,81.42,307.52,81.42z M307.52,62.25c-4.11,0-7.46,3.35-7.46,7.46s3.35,7.46,7.46,7.46c4.11,0,7.46-3.35,7.46-7.46
		S311.63,62.25,307.52,62.25z"/>
	
		<rect x="290.48" y="300.13" transform="matrix(0.5236 -0.852 0.852 0.5236 -157.9033 415.5477)" class="st0" width="4.26" height="97.66"/>
	
		<rect x="273.44" y="317.18" transform="matrix(0.866 -0.5 0.5 0.866 -146.0817 186.8129)" class="st0" width="4.26" height="97.66"/>
</g>
</svg>
