<?xml version="1.0" encoding="utf-8"?>
<!-- Generator: Adobe Illustrator 26.0.1, SVG Export Plug-In . SVG Version: 6.00 Build 0)  -->
<svg version="1.1" id="Calque_1" xmlns="http://www.w3.org/2000/svg" xmlns:xlink="http://www.w3.org/1999/xlink" x="0px" y="0px"
	 viewBox="0 0 500 500" style="enable-background:new 0 0 500 500;" xml:space="preserve">
<style type="text/css">
	.st0{fill:none;stroke:#FFFFFF;stroke-width:2;stroke-miterlimit:10;}
	.st1{fill:#FFFFFF;}
	.st2{fill:none;stroke:#FFFFFF;stroke-miterlimit:10;}
</style>
<g id="logo">
	<g>
		<path class="st0" d="M134.64,141.42v227.6H135c4.47,56.22,55.9,100.57,118.74,100.57s114.28-44.35,118.74-100.57h0.35v-227.6
			H134.64z"/>
		<path class="st1" d="M253.74,472.24c-62.58,0-115.29-43.98-121.16-100.57h-0.23l-0.35-2.65V138.77h243.48v232.9h-0.58
			C369.03,428.26,316.32,472.24,253.74,472.24z M137.29,367.28l0.34,1.54c4.37,55.03,55.37,98.13,116.1,98.13
			s111.73-43.1,116.1-98.13l0.34-2.44V144.06h-232.9V367.28z"/>
	</g>
	<g>
		<path class="st2" d="M372.83,300.21c0,0-53.32,0-119.09,0s-119.09,0-119.09,0s53.32,0,119.09,0S372.83,300.21,372.83,300.21z"/>
		<rect x="134.64" y="297.56" class="st2" width="238.19" height="5.29"/>
	</g>
	<g>
		<path class="st1" d="M372.83,347.85c0,0-53.32,0-119.09,0s-119.09,0-119.09,0s53.32,0,119.09,0S372.83,347.85,372.83,347.85z"/>
		<rect x="134.64" y="345.2" class="st1" width="238.19" height="5.29"/>
	</g>
	
		<rect x="161.11" y="321.38" transform="matrix(-1.836970e-16 1 -1 -1.836970e-16 506.3121 141.7489)" class="st1" width="42.34" height="5.29"/>
	
		<rect x="208.75" y="321.38" transform="matrix(-1.836970e-16 1 -1 -1.836970e-16 553.9501 94.1109)" class="st1" width="42.34" height="5.29"/>
	
		<rect x="256.39" y="321.38" transform="matrix(-1.836970e-16 1 -1 -1.836970e-16 601.5881 46.4729)" class="st1" width="42.34" height="5.29"/>
	
		<rect x="304.02" y="321.38" transform="matrix(-1.836970e-16 1 -1 -1.836970e-16 649.2261 -1.1651)" class="st1" width="42.34" height="5.29"/>
	<rect x="251.09" y="350.5" class="st1" width="5.29" height="116.45"/>
	<path class="st1" d="M280.2,302.86h-52.93v-2.65c0-14.59,11.87-26.47,26.47-26.47c14.59,0,26.47,11.87,26.47,26.47V302.86z
		 M232.73,297.56h42.01c-1.31-10.43-10.23-18.53-21.01-18.53C242.96,279.04,234.04,287.14,232.73,297.56z"/>
	<path class="st1" d="M304.02,302.86H203.45v-2.65c0-27.73,22.56-50.28,50.28-50.28c27.73,0,50.28,22.56,50.28,50.28V302.86z
		 M208.82,297.56h89.83c-1.37-23.58-20.99-42.34-44.91-42.34C229.82,255.22,210.2,273.98,208.82,297.56z"/>
	<path class="st1" d="M327.84,302.86H179.64v-2.65c0-40.86,33.24-74.1,74.1-74.1s74.1,33.24,74.1,74.1V302.86z M184.98,297.56H322.5
		c-1.4-36.72-31.71-66.16-68.76-66.16S186.38,260.85,184.98,297.56z"/>
	<path class="st1" d="M354.31,302.86H153.17v-2.65c0-55.45,45.12-100.57,100.57-100.57s100.57,45.12,100.57,100.57V302.86z
		 M158.5,297.56h190.48c-1.41-51.32-43.59-92.63-95.24-92.63S159.9,246.25,158.5,297.56z"/>
	<path class="st1" d="M375.48,302.86H132v-2.65c0-68.59,54.61-124.39,121.74-124.39s121.74,55.8,121.74,124.39V302.86z
		 M137.32,297.56h232.84c-1.38-64.45-53.08-116.45-116.42-116.45S138.7,233.11,137.32,297.56z"/>
	
		<rect x="141.51" y="378.35" transform="matrix(0.8519 -0.5237 0.5237 0.8519 -169.5791 162.2814)" class="st1" width="121.31" height="5.29"/>
	
		<rect x="162.68" y="399.52" transform="matrix(0.4999 -0.8661 0.8661 0.4999 -236.622 394.5446)" class="st1" width="121.31" height="5.29"/>
	<path class="st1" d="M182.28,87.16c-8.03,0-14.56-6.53-14.56-14.56s6.53-14.56,14.56-14.56c8.03,0,14.56,6.53,14.56,14.56
		S190.31,87.16,182.28,87.16z M182.28,63.34c-5.11,0-9.26,4.16-9.26,9.26c0,5.11,4.16,9.26,9.26,9.26s9.26-4.16,9.26-9.26
		C191.54,67.5,187.39,63.34,182.28,63.34z"/>
	<path class="st1" d="M229.92,87.16c-8.03,0-14.56-6.53-14.56-14.56s6.53-14.56,14.56-14.56s14.56,6.53,14.56,14.56
		S237.95,87.16,229.92,87.16z M229.92,63.34c-5.11,0-9.26,4.16-9.26,9.26c0,5.11,4.16,9.26,9.26,9.26s9.26-4.16,9.26-9.26
		C239.18,67.5,235.03,63.34,229.92,63.34z"/>
	<path class="st1" d="M277.56,87.16c-8.03,0-14.56-6.53-14.56-14.56s6.53-14.56,14.56-14.56c8.03,0,14.56,6.53,14.56,14.56
		S285.59,87.16,277.56,87.16z M277.56,63.34c-5.11,0-9.26,4.16-9.26,9.26c0,5.11,4.16,9.26,9.26,9.26c5.11,0,9.26-4.16,9.26-9.26
		C286.82,67.5,282.66,63.34,277.56,63.34z"/>
	<path class="st1" d="M325.2,87.16c-8.03,0-14.56-6.53-14.56-14.56s6.53-14.56,14.56-14.56s14.56,6.53,14.56,14.56
		S333.22,87.16,325.2,87.16z M325.2,63.34c-5.11,0-9.26,4.16-9.26,9.26c0,5.11,4.16,9.26,9.26,9.26s9.26-4.16,9.26-9.26
		C334.46,67.5,330.3,63.34,325.2,63.34z"/>
	<path class="st1" d="M182.28,124.22c-8.03,0-14.56-6.53-14.56-14.56s6.53-14.56,14.56-14.56c8.03,0,14.56,6.53,14.56,14.56
		S190.31,124.22,182.28,124.22z M182.28,100.4c-5.11,0-9.26,4.16-9.26,9.26c0,5.11,4.16,9.26,9.26,9.26s9.26-4.16,9.26-9.26
		C191.54,104.55,187.39,100.4,182.28,100.4z"/>
	<path class="st1" d="M229.92,124.22c-8.03,0-14.56-6.53-14.56-14.56s6.53-14.56,14.56-14.56s14.56,6.53,14.56,14.56
		S237.95,124.22,229.92,124.22z M229.92,100.4c-5.11,0-9.26,4.16-9.26,9.26c0,5.11,4.16,9.26,9.26,9.26s9.26-4.16,9.26-9.26
		C239.18,104.55,235.03,100.4,229.92,100.4z"/>
	<path class="st1" d="M277.56,124.22c-8.03,0-14.56-6.53-14.56-14.56s6.53-14.56,14.56-14.56c8.03,0,14.56,6.53,14.56,14.56
		S285.59,124.22,277.56,124.22z M277.56,100.4c-5.11,0-9.26,4.16-9.26,9.26c0,5.11,4.16,9.26,9.26,9.26c5.11,0,9.26-4.16,9.26-9.26
		C286.82,104.55,282.66,100.4,277.56,100.4z"/>
	<path class="st1" d="M325.2,124.22c-8.03,0-14.56-6.53-14.56-14.56s6.53-14.56,14.56-14.56s14.56,6.53,14.56,14.56
		S333.22,124.22,325.2,124.22z M325.2,100.4c-5.11,0-9.26,4.16-9.26,9.26c0,5.11,4.16,9.26,9.26,9.26s9.26-4.16,9.26-9.26
		C334.46,104.55,330.3,100.4,325.2,100.4z"/>
	<path class="st1" d="M182.28,50.11c-8.03,0-14.56-6.53-14.56-14.56S174.25,21,182.28,21c8.03,0,14.56,6.53,14.56,14.56
		S190.31,50.11,182.28,50.11z M182.28,26.29c-5.11,0-9.26,4.16-9.26,9.26s4.16,9.26,9.26,9.26s9.26-4.16,9.26-9.26
		S187.39,26.29,182.28,26.29z"/>
	<path class="st1" d="M229.92,50.11c-8.03,0-14.56-6.53-14.56-14.56S221.89,21,229.92,21s14.56,6.53,14.56,14.56
		S237.95,50.11,229.92,50.11z M229.92,26.29c-5.11,0-9.26,4.16-9.26,9.26s4.16,9.26,9.26,9.26s9.26-4.16,9.26-9.26
		S235.03,26.29,229.92,26.29z"/>
	<path class="st1" d="M277.56,50.11c-8.03,0-14.56-6.53-14.56-14.56S269.53,21,277.56,21c8.03,0,14.56,6.53,14.56,14.56
		S285.59,50.11,277.56,50.11z M277.56,26.29c-5.11,0-9.26,4.16-9.26,9.26s4.16,9.26,9.26,9.26c5.11,0,9.26-4.16,9.26-9.26
		S282.66,26.29,277.56,26.29z"/>
	<path class="st1" d="M325.2,50.11c-8.03,0-14.56-6.53-14.56-14.56S317.17,21,325.2,21s14.56,6.53,14.56,14.56
		S333.22,50.11,325.2,50.11z M325.2,26.29c-5.11,0-9.26,4.16-9.26,9.26s4.16,9.26,9.26,9.26s9.26-4.16,9.26-9.26
		S330.3,26.29,325.2,26.29z"/>
	
		<rect x="304.02" y="321.8" transform="matrix(0.5236 -0.852 0.852 0.5236 -179.7405 443.483)" class="st1" width="5.29" height="121.31"/>
	
		<rect x="282.85" y="342.97" transform="matrix(0.866 -0.5 0.5 0.866 -163.5616 196.8186)" class="st1" width="5.29" height="121.31"/>
</g>
</svg>
